<svg xmlns="http://www.w3.org/2000/svg" viewBox="0 0 512 512" width="512" height="512">
  <defs>
    <linearGradient id="g" x1="0" y1="0" x2="1" y2="1">
      <stop offset="0" stop-color="#6366f1"/>
      <stop offset="1" stop-color="#4338ca"/>
    </linearGradient>
  </defs>
  <rect width="512" height="512" rx="96" fill="url(#g)"/>
  <g fill="none" stroke="#fff" stroke-width="24" stroke-linecap="round" stroke-linejoin="round">
    <path d="M384 176a32 32 0 0 0-16-27.7l-96-55.4a32 32 0 0 0-32 0l-96 55.4A32 32 0 0 0 128 176v110.6a32 32 0 0 0 16 27.7l96 55.4a32 32 0 0 0 32 0l96-55.4a32 32 0 0 0 16-27.7Z"/>
    <path d="m132 156 124 72 124-72"/>
    <path d="M256 372V228"/>
  </g>
</svg>
